<svg width="137" height="65" viewBox="0 0 137 65" fill="none" xmlns="http://www.w3.org/2000/svg">
<path fill-rule="evenodd" clip-rule="evenodd" d="M5.17791 38.5147C6.29212 41.3929 8.91379 42.9627 12.322 42.9627C15.468 42.9627 18.0243 41.5236 18.0243 38.9072C18.0243 36.7487 16.4512 35.2443 13.3706 34.3285L9.63473 33.2818C4.19479 31.6466 1.50757 28.7031 1.50757 24.4515C1.50757 19.1532 6.68538 15.8175 12.1909 15.8175C16.9756 15.8175 20.8426 17.7798 22.4811 21.5081L17.3033 23.8629C16.4512 22.0314 14.7472 21.1157 12.1909 21.1157C9.76582 21.1157 7.79957 22.2276 7.79957 24.3207C7.79957 26.2176 9.37257 27.1989 11.7976 27.9182L15.206 28.8994C20.777 30.404 24.2507 33.6744 24.2507 38.6456C24.2507 44.598 18.6797 48.2609 12.322 48.2609C6.22658 48.2609 1.37649 45.4482 9.88665e-05 40.9349L5.17791 38.5147Z" fill="#0C1013"/>
<path fill-rule="evenodd" clip-rule="evenodd" d="M45.5825 -9.96054e-05C47.7286 -9.96054e-05 49.3793 1.48234 49.3793 3.67851C49.3793 5.81976 47.6186 7.30201 45.5825 7.30201C43.4366 7.30201 41.7857 5.81976 41.7857 3.67851C41.7857 1.48233 43.4366 -9.96054e-05 45.5825 -9.96054e-05Z" fill="#0C1013"/>
<path fill-rule="evenodd" clip-rule="evenodd" d="M45.5825 56.7012C47.7286 56.7012 49.3793 58.1839 49.3793 60.38C49.3793 62.5212 47.6186 64.0037 45.5825 64.0037C43.4366 64.0037 41.7857 62.5212 41.7857 60.38C41.7857 58.1839 43.4366 56.7012 45.5825 56.7012Z" fill="#0C1013"/>
<path fill-rule="evenodd" clip-rule="evenodd" d="M42.5684 47.3991V16.5903H48.5974V47.3991H42.5684Z" fill="#0C1013"/>
<path fill-rule="evenodd" clip-rule="evenodd" d="M71.9339 38.5147C73.0481 41.3929 75.6698 42.9627 79.0782 42.9627C82.2242 42.9627 84.7803 41.5236 84.7803 38.9072C84.7803 36.7487 83.2073 35.2443 80.1268 34.3285L76.3907 33.2818C70.9508 31.6466 68.2635 28.7031 68.2635 24.4515C68.2635 19.1532 73.4414 15.8175 78.9471 15.8175C83.7317 15.8175 87.5986 17.7798 89.2372 21.5081L84.0594 23.8629C83.2073 22.0314 81.5032 21.1157 78.9471 21.1157C76.5218 21.1157 74.5556 22.2276 74.5556 24.3207C74.5556 26.2176 76.1286 27.1989 78.5538 27.9182L81.9619 28.8994C87.5331 30.404 91.0069 33.6744 91.0069 38.6456C91.0069 44.598 85.4358 48.2609 79.0782 48.2609C72.9825 48.2609 68.1324 45.4482 66.7559 40.9349L71.9339 38.5147Z" fill="#0C1013"/>
<path fill-rule="evenodd" clip-rule="evenodd" d="M130.971 16.5903H137V34.9119C137 42.9606 131.102 48.2608 122.845 48.2608C114.588 48.2608 108.69 42.9606 108.69 34.9119V16.5903H114.719V34.4539C114.719 39.4925 117.864 42.8296 122.845 42.8296C127.825 42.8296 130.971 39.4925 130.971 34.4539L130.971 16.5903Z" fill="#0C1013"/>
<path fill-rule="evenodd" clip-rule="evenodd" d="M71.9648 56.6738C73.4558 56.6738 74.6569 57.4025 75.2574 58.5702L73.7163 59.3286C73.396 58.6798 72.7955 58.2806 71.9648 58.2806C70.7137 58.2806 69.9731 59.2388 69.9731 60.3266C69.9731 61.4145 70.7137 62.3725 71.9648 62.3725C72.7955 62.3725 73.396 61.9734 73.7163 61.3247L75.2574 62.0832C74.6569 63.2509 73.4558 63.9793 71.9648 63.9793C69.7929 64.0093 68.2016 62.3226 68.2316 60.3266C68.2016 58.3305 69.7929 56.6438 71.9648 56.6738V56.6738Z" fill="#0C1013"/>
<path fill-rule="evenodd" clip-rule="evenodd" d="M83.128 56.8375H84.8357V62.251H87.802V63.8162H83.128V56.8375Z" fill="#0C1013"/>
<path fill-rule="evenodd" clip-rule="evenodd" d="M97.1964 56.8375V63.8162H95.4841V56.8375H97.1964Z" fill="#0C1013"/>
<path fill-rule="evenodd" clip-rule="evenodd" d="M107.306 59.8579V63.8177H105.594V56.8058H106.815L110.118 60.7955L110.128 56.8359H111.83V63.8475H110.609L107.306 59.8579Z" fill="#0C1013"/>
<path fill-rule="evenodd" clip-rule="evenodd" d="M121.96 56.8375V63.8162H120.248V56.8375H121.96Z" fill="#0C1013"/>
<path fill-rule="evenodd" clip-rule="evenodd" d="M133.704 56.6738C135.192 56.6738 136.391 57.4025 136.99 58.5702L135.452 59.3286C135.133 58.6798 134.533 58.2806 133.704 58.2806C132.456 58.2806 131.716 59.2388 131.716 60.3266C131.716 61.4145 132.456 62.3725 133.704 62.3725C134.533 62.3725 135.133 61.9734 135.452 61.3247L136.99 62.0832C136.391 63.2509 135.192 63.9793 133.704 63.9793C131.537 64.0093 129.949 62.3226 129.979 60.3266C129.949 58.3305 131.537 56.6438 133.704 56.6738V56.6738Z" fill="#0C1013"/>
</svg>
