<?xml version="1.0" encoding="UTF-8"?>
<svg width="178px" height="83px" viewBox="0 0 178 83" version="1.1" xmlns="http://www.w3.org/2000/svg" xmlns:xlink="http://www.w3.org/1999/xlink">
    <title>Logo</title>
    <g id="Admin-Final" stroke="none" stroke-width="1" fill="none" fill-rule="evenodd">
        <g id="4-reset-password-confirm" transform="translate(-631.000000, -78.000000)" fill="#000000" fill-rule="nonzero">
            <g id="Logo" transform="translate(631.000000, 78.000000)">
                <path d="M6.61545028,49.3892902 C8.03997724,53.1158861 11.3918054,55.1485747 15.749182,55.1485747 C19.7713757,55.1485747 23.0394082,53.2852768 23.0394082,49.8974624 C23.0394082,47.1025155 21.0283113,45.1545222 17.0855029,43.9687871 L12.3091478,42.6136613 C5.35410442,40.4962773 1.91848058,36.6849861 1.91848058,31.1797876 C1.91848058,24.3194634 8.53393086,20 15.5771803,20 C21.6942666,20 26.6382131,22.5408608 28.7331057,27.3684964 L22.1176554,30.4175294 C21.0283113,28.0401157 18.849623,26.8514089 15.5815906,26.8514089 C12.4811495,26.8514089 9.96727842,28.2912301 9.96727842,31.0014816 C9.96727842,33.4531894 11.9783753,34.7280775 15.0788163,35.6597264 L19.4361929,36.9301569 C26.5588277,38.8781502 31,43.1129182 31,49.5497656 C31,57.2570435 23.8773652,62 15.749182,62 C7.96059183,62.008899 1.76412007,58.3692273 0,52.5230185 L6.61545028,49.3892902 Z" id="Path"></path>
                <path d="M60,0 C62.825,0 65,1.82932011 65,4.53824363 C65,7.18130312 62.6795455,9 60,9 C57.1727273,9 55,7.17067989 55,4.53824363 C55,1.82932011 57.1727273,0 60,0 Z" id="Path"></path>
                <path d="M60,74 C62.825,74 65,75.8271634 65,78.5328932 C65,81.1728366 62.6795455,83 60,83 C57.1727273,83 55,81.1728366 55,78.5328932 C55,75.8271634 57.1727273,74 60,74 Z" id="Path"></path>
                <rect id="Rectangle" x="57" y="21" width="7" height="40"></rect>
                <path d="M94.6189189,49.3893016 C96.0432432,53.115899 99.3945946,55.1485884 103.751351,55.1485884 C107.772973,55.1485884 111.040541,53.2852897 111.040541,49.897474 C111.040541,47.102526 109.02973,45.1545319 105.087482,43.9687964 L100.311807,42.6136701 C93.3577525,40.4962853 89.9226174,36.6849926 89.9226174,31.179792 C89.9226174,24.3194651 96.5371266,20 103.579374,20 C109.69559,20 114.638834,22.5408618 116.733428,27.3684993 L110.118919,30.4175334 C109.02973,28.0401189 106.851351,26.8514116 103.583784,26.8514116 C100.483784,26.8514116 97.9702703,28.2912333 97.9702703,31.0014859 C97.9702703,33.4531947 99.9810811,34.7280832 103.081081,35.6597325 L107.437838,36.9301634 C114.559459,38.8781575 119,43.1129272 119,49.5497771 C119,57.2570579 111.878378,62 103.751351,62 C95.9594595,62 89.7594595,58.3580981 88,52.5141159 L94.6189189,49.3893016 Z" id="Path"></path>
                <path d="M169.325029,20 L177,20 L177,44.2975207 C177,54.9710744 169.500457,62 159.001096,62 C148.501736,62 141,54.9710744 141,44.2975207 L141,20 L148.674971,20 L148.674971,43.6900826 C148.674971,50.3719008 152.67692,54.7975207 159.009868,54.7975207 C165.342815,54.7975207 169.342572,50.3719008 169.342572,43.6900826 L169.325029,20 Z" id="Path"></path>
                <path d="M93.7881552,74.0095429 C95.6954057,74.0095429 97.2318019,74.9061505 98,76.3411468 L96.028733,77.275908 C95.620761,76.4516145 94.7375957,75.9427978 93.7881552,75.9850472 C92.1877425,75.9850472 91.2407396,77.163567 91.2407396,78.5052991 C91.2407396,79.8470312 92.1877425,81.025551 93.7881552,81.025551 C94.7375957,81.0678004 95.620761,80.5589837 96.028733,79.7346902 L98,80.6673318 C97.2318019,82.1065673 95.6954057,82.9989357 93.7881552,82.9989357 C92.0899986,83.0343312 90.5048215,82.1846644 89.6449235,80.7781325 C88.7850255,79.3716006 88.7850255,77.6283994 89.6449235,76.2218675 C90.5048215,74.8153356 92.0899986,73.9656688 93.7881552,74.0010643 L93.7881552,74.0095429 Z" id="Path"></path>
                <polygon id="Path" points="107 74 109.556006 74 109.556006 80.9805419 114 80.9805419 114 83 107 83"></polygon>
                <polygon id="Path" points="126 74 126 83 123 83 123 74"></polygon>
                <polygon id="Path" points="139.920011 77.8948011 139.920011 82.9472785 138 82.9472785 138 74 139.369776 74 143.078051 79.096412 143.089676 74.0439346 145 74.0439346 145 83 143.628287 83"></polygon>
                <polygon id="Path" points="159 74 159 83 156 83 156 74"></polygon>
                <path d="M173.788155,74.0095429 C175.695406,74.0095429 177.231802,74.9061505 178,76.3411468 L176.028733,77.275908 C175.619849,76.4524097 174.737294,75.9439446 173.788155,75.9850472 C172.187742,75.9850472 171.238532,77.163567 171.238532,78.5052991 C171.238532,79.8470312 172.187742,81.025551 173.788155,81.025551 C174.737294,81.0666536 175.619849,80.5581885 176.028733,79.7346902 L178,80.6673318 C177.231802,82.1065673 175.695406,82.9989357 173.788155,82.9989357 C172.089999,83.0343312 170.504822,82.1846644 169.644924,80.7781325 C168.785025,79.3716006 168.785025,77.6283994 169.644924,76.2218675 C170.504822,74.8153356 172.089999,73.9656688 173.788155,74.0010643 L173.788155,74.0095429 Z" id="Path"></path>
            </g>
        </g>
    </g>
</svg>