<svg width="220" height="104" viewBox="0 0 220 104" fill="none" xmlns="http://www.w3.org/2000/svg">
<path fill-rule="evenodd" clip-rule="evenodd" d="M8.31488 61.9846C10.1041 66.6167 14.3141 69.1431 19.7871 69.1431C24.8391 69.1431 28.9441 66.827 28.9441 62.6162C28.9441 59.1424 26.418 56.7212 21.4711 55.2475L15.4718 53.5629C6.73616 50.9312 2.42092 46.1941 2.42092 39.3516C2.42092 30.8246 10.7356 25.4562 19.5766 25.4562C27.2601 25.4562 33.4698 28.6143 36.1011 34.6146L27.7863 38.4042C26.418 35.4567 23.6816 33.983 19.5766 33.983C15.6823 33.983 12.5249 35.7725 12.5249 39.1411C12.5249 42.1939 15.0508 43.7732 18.9451 44.9309L24.4183 46.5099C33.3645 48.9314 38.9428 54.1948 38.9428 62.1952C38.9428 71.7749 29.9966 77.6699 19.7871 77.6699C9.99889 77.6699 2.21042 73.1431 0.000158764 65.8796L8.31488 61.9846Z" fill="#0C1013"/>
<path fill-rule="evenodd" clip-rule="evenodd" d="M73.1983 -0.000160302C76.6445 -0.000160302 79.2953 2.38564 79.2953 5.9201C79.2953 9.36617 76.4679 11.7517 73.1983 11.7517C69.7523 11.7517 67.1012 9.36617 67.1012 5.9201C67.1012 2.38562 69.7523 -0.000160302 73.1983 -0.000160302Z" fill="#0C1013"/>
<path fill-rule="evenodd" clip-rule="evenodd" d="M73.1983 91.2535C76.6445 91.2535 79.2953 93.6397 79.2953 97.1739C79.2953 100.62 76.4679 103.006 73.1983 103.006C69.7523 103.006 67.1012 100.62 67.1012 97.1739C67.1012 93.6397 69.7523 91.2535 73.1983 91.2535Z" fill="#0C1013"/>
<path fill-rule="evenodd" clip-rule="evenodd" d="M68.3581 76.2831V26.7002H78.0396V76.2831H68.3581Z" fill="#0C1013"/>
<path fill-rule="evenodd" clip-rule="evenodd" d="M115.514 61.9846C117.304 66.6167 121.514 69.1431 126.987 69.1431C132.039 69.1431 136.144 66.827 136.144 62.6162C136.144 59.1424 133.618 56.7212 128.671 55.2475L122.671 53.5629C113.936 50.9312 109.62 46.1941 109.62 39.3516C109.62 30.8246 117.935 25.4562 126.776 25.4562C134.46 25.4562 140.67 28.6143 143.301 34.6146L134.986 38.4042C133.618 35.4567 130.881 33.983 126.776 33.983C122.882 33.983 119.724 35.7725 119.724 39.1411C119.724 42.1939 122.25 43.7732 126.145 44.9309L131.618 46.5099C140.564 48.9314 146.143 54.1948 146.143 62.1952C146.143 71.7749 137.196 77.6699 126.987 77.6699C117.198 77.6699 109.41 73.1431 107.199 65.8796L115.514 61.9846Z" fill="#0C1013"/>
<path fill-rule="evenodd" clip-rule="evenodd" d="M210.318 26.7001H220V56.1865C220 69.1399 210.529 77.6698 197.269 77.6698C184.009 77.6698 174.538 69.1399 174.538 56.1865V26.7001H184.22V55.4493C184.22 63.5583 189.271 68.929 197.269 68.929C205.267 68.929 210.318 63.5583 210.318 55.4493L210.318 26.7001Z" fill="#0C1013"/>
<path fill-rule="evenodd" clip-rule="evenodd" d="M115.564 91.2094C117.958 91.2094 119.887 92.3822 120.851 94.2615L118.376 95.482C117.862 94.4379 116.898 93.7954 115.564 93.7954C113.555 93.7954 112.365 95.3374 112.365 97.0882C112.365 98.839 113.555 100.381 115.564 100.381C116.898 100.381 117.862 99.7385 118.376 98.6944L120.851 99.9152C119.887 101.794 117.958 102.967 115.564 102.967C112.076 103.015 109.521 100.3 109.569 97.0882C109.521 93.8758 112.076 91.1612 115.564 91.2094V91.2094Z" fill="#0C1013"/>
<path fill-rule="evenodd" clip-rule="evenodd" d="M133.49 91.473H136.232V100.185H140.996V102.704H133.49V91.473Z" fill="#0C1013"/>
<path fill-rule="evenodd" clip-rule="evenodd" d="M156.082 91.473V102.704H153.332V91.473H156.082Z" fill="#0C1013"/>
<path fill-rule="evenodd" clip-rule="evenodd" d="M172.316 96.3339V102.707H169.567V91.4219H171.528L176.832 97.8428L176.848 91.4703H179.581V102.755H177.62L172.316 96.3339Z" fill="#0C1013"/>
<path fill-rule="evenodd" clip-rule="evenodd" d="M195.848 91.473V102.704H193.098V91.473H195.848Z" fill="#0C1013"/>
<path fill-rule="evenodd" clip-rule="evenodd" d="M214.707 91.2094C217.097 91.2094 219.022 92.3822 219.984 94.2615L217.514 95.482C217.001 94.4379 216.039 93.7954 214.707 93.7954C212.702 93.7954 211.515 95.3374 211.515 97.0882C211.515 98.839 212.702 100.381 214.707 100.381C216.039 100.381 217.001 99.7385 217.514 98.6944L219.984 99.9152C219.022 101.794 217.097 102.967 214.707 102.967C211.227 103.015 208.677 100.3 208.725 97.0882C208.677 93.8758 211.227 91.1612 214.707 91.2094V91.2094Z" fill="#0C1013"/>
</svg>
